<svg width="1918" height="839" viewBox="0 0 1918 839" fill="none" xmlns="http://www.w3.org/2000/svg">
<g opacity="0.8">
<mask id="mask0_10_1653" style="mask-type:alpha" maskUnits="userSpaceOnUse" x="0" y="0" width="1918" height="839">
<rect width="1918" height="839" fill="#ECF3FF"/>
</mask>
<g mask="url(#mask0_10_1653)">
<mask id="mask1_10_1653" style="mask-type:alpha" maskUnits="userSpaceOnUse" x="-80" y="-433" width="2291" height="1738">
<rect x="-1.61126" y="-2.32811" width="2083.6" height="1388.4" rx="24.179" transform="matrix(0.982882 0.178916 -0.177252 0.98514 165.945 -431.721)" fill="#408AFD" fill-opacity="0.45" stroke="#D7D7D7" stroke-width="4"/>
</mask>
<g mask="url(#mask1_10_1653)">
<path d="M-89.6057 134.643C96.8931 186.962 506.129 224.763 651.081 -42.5809C832.272 -376.761 1325.1 -436.513 1560.08 -421" stroke="#D7D7D7"/>
<path d="M-60.835 236.747C128.575 277.122 539.367 288.868 667.255 12.8558C827.116 -332.16 1315.21 -423.079 1550.69 -422.514" stroke="#D7D7D7" stroke-width="4"/>
<path d="M-56.6485 346.221C132.761 386.596 543.553 398.342 671.442 122.329C831.302 -222.686 1319.39 -313.606 1554.88 -313.04" stroke="#D7D7D7" stroke-width="4"/>
<path d="M-53.3712 457.891C136.039 498.266 546.831 510.012 674.719 233.999C834.58 -111.016 1322.67 -201.936 1558.16 -201.37" stroke="#D7D7D7" stroke-width="4"/>
<path d="M-53.3712 457.891C136.039 498.266 546.831 510.012 674.719 233.999C834.58 -111.016 1322.67 -201.936 1558.16 -201.37" stroke="#D7D7D7" stroke-width="4"/>
<path d="M76.3417 810.743C285.68 844.99 742.285 842.649 894 559.309C1083.64 205.135 1629.76 96.3743 1891.71 88.7992" stroke="#D7D7D7" stroke-width="4"/>
<path d="M71.2568 984.855C280.595 1019.1 737.2 1016.76 888.915 733.421C1078.56 379.247 1624.67 270.486 1886.63 262.911" stroke="#D7D7D7" stroke-width="4"/>
<path d="M106.328 1100.55C315.666 1134.8 772.272 1132.46 923.986 849.118C1113.63 494.944 1659.74 386.183 1921.7 378.608" stroke="#D7D7D7" stroke-width="4"/>
<path d="M188.834 1204.9C398.172 1239.14 854.778 1236.8 1006.49 953.464C1196.13 599.29 1742.25 490.529 2004.21 482.954" stroke="#D7D7D7" stroke-width="4"/>
<path d="M321.714 1359.23C531.052 1393.48 987.657 1391.14 1139.37 1107.8C1329.01 753.622 1875.13 644.861 2137.09 637.286" stroke="#D7D7D7" stroke-width="4"/>
<path d="M134.222 680.563C323.631 720.938 734.423 732.684 862.312 456.672C1022.17 111.656 1510.26 20.7366 1745.75 21.3021" stroke="#D7D7D7" stroke-width="4"/>
<path d="M-46.6212 584.238C163.851 618.136 623.064 614.993 776.134 331.237C967.472 -23.4584 1516.89 -133.235 1780.35 -141.273" stroke="#D7D7D7" stroke-width="4"/>
</g>
</g>
</g>
</svg>
