<svg width="110" height="30" viewBox="0 0 110 30" fill="none" xmlns="http://www.w3.org/2000/svg">
<path d="M23.75 13.7496H8.925L13.4625 8.29961C13.6747 8.04434 13.7768 7.71524 13.7463 7.38471C13.7158 7.05417 13.5553 6.74929 13.3 6.53711C13.0447 6.32494 12.7156 6.22286 12.3851 6.25334C12.0546 6.28381 11.7497 6.44434 11.5375 6.69961L5.2875 14.1996C5.24545 14.2593 5.20785 14.3219 5.175 14.3871C5.175 14.4496 5.175 14.4871 5.0875 14.5496C5.03084 14.6929 5.00118 14.8455 5 14.9996C5.00118 15.1537 5.03084 15.3063 5.0875 15.4496C5.0875 15.5121 5.0875 15.5496 5.175 15.6121C5.20785 15.6773 5.24545 15.74 5.2875 15.7996L11.5375 23.2996C11.655 23.4407 11.8022 23.5542 11.9686 23.632C12.1349 23.7097 12.3164 23.7499 12.5 23.7496C12.7921 23.7502 13.0751 23.6485 13.3 23.4621C13.4266 23.3572 13.5312 23.2283 13.6079 23.0829C13.6846 22.9374 13.7318 22.7783 13.7469 22.6146C13.762 22.4509 13.7447 22.2858 13.6959 22.1288C13.6471 21.9718 13.5678 21.8259 13.4625 21.6996L8.925 16.2496H23.75C24.0815 16.2496 24.3995 16.1179 24.6339 15.8835C24.8683 15.6491 25 15.3311 25 14.9996C25 14.6681 24.8683 14.3501 24.6339 14.1157C24.3995 13.8813 24.0815 13.7496 23.75 13.7496Z" fill="#1A202C"/>
<path d="M86.25 13.7496H101.075L96.5375 8.29961C96.3253 8.04434 96.2232 7.71524 96.2537 7.38471C96.2842 7.05417 96.4447 6.74929 96.7 6.53711C96.9553 6.32494 97.2844 6.22286 97.6149 6.25334C97.9454 6.28381 98.2503 6.44434 98.4625 6.69961L104.712 14.1996C104.755 14.2593 104.792 14.3219 104.825 14.3871C104.825 14.4496 104.825 14.4871 104.912 14.5496C104.969 14.6929 104.999 14.8455 105 14.9996C104.999 15.1537 104.969 15.3063 104.912 15.4496C104.912 15.5121 104.913 15.5496 104.825 15.6121C104.792 15.6773 104.755 15.74 104.712 15.7996L98.4625 23.2996C98.345 23.4407 98.1978 23.5542 98.0314 23.632C97.8651 23.7097 97.6836 23.7499 97.5 23.7496C97.2079 23.7502 96.9249 23.6485 96.7 23.4621C96.5734 23.3572 96.4688 23.2283 96.3921 23.0829C96.3154 22.9374 96.2682 22.7783 96.2531 22.6146C96.238 22.4509 96.2553 22.2858 96.3041 22.1288C96.3529 21.9718 96.4322 21.8259 96.5375 21.6996L101.075 16.2496H86.25C85.9185 16.2496 85.6005 16.1179 85.3661 15.8835C85.1317 15.6491 85 15.3311 85 14.9996C85 14.6681 85.1317 14.3501 85.3661 14.1157C85.6005 13.8813 85.9185 13.7496 86.25 13.7496Z" fill="#486284"/>
</svg>
