<svg width="166" height="119" viewBox="0 0 166 119" fill="none" xmlns="http://www.w3.org/2000/svg">
<ellipse cx="160.167" cy="5.63846" rx="5.6159" ry="4.74495" transform="rotate(89.7268 160.167 5.63846)" fill="#408AFD"/>
<ellipse cx="160.292" cy="31.8465" rx="5.6159" ry="4.74495" transform="rotate(89.7268 160.292 31.8465)" fill="#408AFD"/>
<ellipse cx="160.417" cy="58.0535" rx="5.6159" ry="4.74495" transform="rotate(89.7268 160.417 58.0535)" fill="#408AFD"/>
<ellipse cx="160.542" cy="84.261" rx="5.6159" ry="4.74495" transform="rotate(89.7268 160.542 84.261)" fill="#408AFD"/>
<ellipse cx="160.667" cy="111.638" rx="5.6159" ry="4.74495" transform="rotate(89.7268 160.667 111.638)" fill="#408AFD"/>
<ellipse cx="138.024" cy="5.74393" rx="5.6159" ry="4.74495" transform="rotate(89.7268 138.024 5.74393)" fill="#408AFD"/>
<ellipse cx="138.149" cy="31.9519" rx="5.6159" ry="4.74495" transform="rotate(89.7268 138.149 31.9519)" fill="#408AFD"/>
<ellipse cx="138.274" cy="58.159" rx="5.6159" ry="4.74495" transform="rotate(89.7268 138.274 58.159)" fill="#408AFD"/>
<ellipse cx="138.399" cy="84.3665" rx="5.6159" ry="4.74495" transform="rotate(89.7268 138.399 84.3665)" fill="#408AFD"/>
<ellipse cx="138.524" cy="111.638" rx="5.6159" ry="4.74495" transform="rotate(89.7268 138.524 111.638)" fill="#408AFD"/>
<ellipse cx="115.78" cy="5.33038" rx="5.09591" ry="4.8438" transform="rotate(89.7268 115.78 5.33038)" fill="#408AFD"/>
<ellipse cx="115.905" cy="31.5379" rx="5.09591" ry="4.8438" transform="rotate(89.7268 115.905 31.5379)" fill="#408AFD"/>
<ellipse cx="116.03" cy="57.7449" rx="5.09591" ry="4.8438" transform="rotate(89.7268 116.03 57.7449)" fill="#408AFD"/>
<ellipse cx="116.155" cy="83.9529" rx="5.09591" ry="4.8438" transform="rotate(89.7268 116.155 83.9529)" fill="#408AFD"/>
<ellipse cx="116.28" cy="112.119" rx="5.09591" ry="4.8438" transform="rotate(89.7268 116.28 112.119)" fill="#408AFD"/>
<ellipse cx="93.5409" cy="5.95634" rx="5.6159" ry="4.74495" transform="rotate(89.7268 93.5409 5.95634)" fill="#408AFD"/>
<ellipse cx="93.6659" cy="32.1643" rx="5.6159" ry="4.74495" transform="rotate(89.7268 93.6659 32.1643)" fill="#408AFD"/>
<ellipse cx="93.7909" cy="58.3714" rx="5.6159" ry="4.74495" transform="rotate(89.7268 93.7909 58.3714)" fill="#408AFD"/>
<ellipse cx="93.9159" cy="84.5789" rx="5.6159" ry="4.74495" transform="rotate(89.7268 93.9159 84.5789)" fill="#408AFD"/>
<ellipse cx="94.0409" cy="111.638" rx="5.6159" ry="4.74495" transform="rotate(89.7268 94.0409 111.638)" fill="#408AFD"/>
<ellipse cx="71.3979" cy="6.0618" rx="5.6159" ry="4.74495" transform="rotate(89.7268 71.3979 6.0618)" fill="#408AFD"/>
<ellipse cx="71.5229" cy="32.2698" rx="5.6159" ry="4.74495" transform="rotate(89.7268 71.5229 32.2698)" fill="#408AFD"/>
<ellipse cx="71.6479" cy="58.4768" rx="5.6159" ry="4.74495" transform="rotate(89.7268 71.6479 58.4768)" fill="#408AFD"/>
<ellipse cx="71.7729" cy="84.6844" rx="5.6159" ry="4.74495" transform="rotate(89.7268 71.7729 84.6844)" fill="#408AFD"/>
<ellipse cx="71.8979" cy="111.638" rx="5.6159" ry="4.74495" transform="rotate(89.7268 71.8979 111.638)" fill="#408AFD"/>
<ellipse cx="49.1537" cy="5.64776" rx="5.09591" ry="4.8438" transform="rotate(89.7268 49.1537 5.64776)" fill="#408AFD"/>
<ellipse cx="49.2787" cy="31.8558" rx="5.09591" ry="4.8438" transform="rotate(89.7268 49.2787 31.8558)" fill="#408AFD"/>
<ellipse cx="49.4037" cy="58.0628" rx="5.09591" ry="4.8438" transform="rotate(89.7268 49.4037 58.0628)" fill="#408AFD"/>
<ellipse cx="49.5287" cy="84.2703" rx="5.09591" ry="4.8438" transform="rotate(89.7268 49.5287 84.2703)" fill="#408AFD"/>
<ellipse cx="49.6537" cy="112.119" rx="5.09591" ry="4.8438" transform="rotate(89.7268 49.6537 112.119)" fill="#408AFD"/>
<ellipse cx="26.9145" cy="6.27421" rx="5.6159" ry="4.74495" transform="rotate(89.7268 26.9145 6.27421)" fill="#408AFD"/>
<ellipse cx="27.0395" cy="32.4817" rx="5.6159" ry="4.74495" transform="rotate(89.7268 27.0395 32.4817)" fill="#408AFD"/>
<ellipse cx="27.1645" cy="58.6888" rx="5.6159" ry="4.74495" transform="rotate(89.7268 27.1645 58.6888)" fill="#408AFD"/>
<ellipse cx="27.2895" cy="84.8968" rx="5.6159" ry="4.74495" transform="rotate(89.7268 27.2895 84.8968)" fill="#408AFD"/>
<ellipse cx="27.4145" cy="111.638" rx="5.6159" ry="4.74495" transform="rotate(89.7268 27.4145 111.638)" fill="#408AFD"/>
<ellipse cx="4.77188" cy="6.37968" rx="5.6159" ry="4.74495" transform="rotate(89.7268 4.77188 6.37968)" fill="#408AFD"/>
<ellipse cx="4.89688" cy="32.5877" rx="5.6159" ry="4.74495" transform="rotate(89.7268 4.89688 32.5877)" fill="#408AFD"/>
<ellipse cx="5.02188" cy="58.7947" rx="5.6159" ry="4.74495" transform="rotate(89.7268 5.02188 58.7947)" fill="#408AFD"/>
<ellipse cx="5.14663" cy="85.0022" rx="5.6159" ry="4.74495" transform="rotate(89.7268 5.14663 85.0022)" fill="#408AFD"/>
<ellipse cx="5.27163" cy="111.638" rx="5.6159" ry="4.74495" transform="rotate(89.7268 5.27163 111.638)" fill="#408AFD"/>
</svg>
