<svg width="27" height="28" viewBox="0 0 27 28" fill="none" xmlns="http://www.w3.org/2000/svg">
<path d="M18.8827 10.6394H7.77497C6.24132 10.6394 4.99805 11.8827 4.99805 13.4163V21.7471C4.99805 23.2807 6.24132 24.524 7.77497 24.524H18.8827C20.4163 24.524 21.6596 23.2807 21.6596 21.7471V13.4163C21.6596 11.8827 20.4163 10.6394 18.8827 10.6394Z" stroke="#211F54" stroke-width="1.86609" stroke-linecap="round" stroke-linejoin="round"/>
<path d="M13.3292 2.30859C11.8563 2.30859 10.4436 2.89373 9.40207 3.93528C8.36053 4.97682 7.77539 6.38947 7.77539 7.86244V10.6394H18.8831V7.86244C18.8831 6.38947 18.2979 4.97682 17.2564 3.93528C16.2148 2.89373 14.8022 2.30859 13.3292 2.30859V2.30859Z" stroke="#211F54" stroke-width="1.86609" stroke-linecap="round" stroke-linejoin="round"/>
</svg>
