<svg width="27" height="28" viewBox="0 0 27 28" fill="none" xmlns="http://www.w3.org/2000/svg">
<path d="M16.3296 23.6334L16.3417 23.6419C17.3908 24.3099 18.6363 24.6 19.8726 24.4642C21.1088 24.3284 22.2617 23.775 23.1409 22.8953L23.9045 22.1316C24.0738 21.9624 24.208 21.7616 24.2996 21.5406C24.3912 21.3195 24.4384 21.0826 24.4384 20.8434C24.4384 20.6041 24.3912 20.3672 24.2996 20.1462C24.208 19.9251 24.0738 19.7243 23.9045 19.5552L20.6834 16.3365C20.5143 16.1673 20.3135 16.033 20.0925 15.9414C19.8714 15.8498 19.6345 15.8027 19.3953 15.8027C19.156 15.8027 18.9191 15.8498 18.698 15.9414C18.477 16.033 18.2762 16.1673 18.1071 16.3365C17.7655 16.6779 17.3024 16.8697 16.8195 16.8697C16.3366 16.8697 15.8734 16.6779 15.5319 16.3365L10.3815 11.1849C10.0401 10.8434 9.84831 10.3803 9.84831 9.89736C9.84831 9.41444 10.0401 8.9513 10.3815 8.60977C10.5508 8.44064 10.685 8.23982 10.7766 8.01879C10.8682 7.79775 10.9154 7.56084 10.9154 7.32158C10.9154 7.08231 10.8682 6.8454 10.7766 6.62436C10.685 6.40333 10.5508 6.20251 10.3815 6.03338L7.16165 2.81472C6.82013 2.47329 6.35698 2.28149 5.87407 2.28149C5.39115 2.28149 4.928 2.47329 4.58648 2.81472L3.82158 3.57841C2.94205 4.45765 2.3888 5.61066 2.25326 6.84689C2.11771 8.08313 2.40798 9.32861 3.0761 10.3775L3.08338 10.3897C6.61187 15.6102 11.1084 20.1059 16.3296 23.6334V23.6334Z" stroke="#1678F2" stroke-width="1.86609" stroke-linecap="round" stroke-linejoin="round"/>
</svg>
