<svg width="27" height="28" viewBox="0 0 27 28" fill="none" xmlns="http://www.w3.org/2000/svg">
<path d="M24.4361 8.4082V19.5159C24.4361 20.2524 24.1435 20.9587 23.6227 21.4795C23.102 22.0002 22.3956 22.2928 21.6592 22.2928H4.99763C4.26114 22.2928 3.55482 22.0002 3.03404 21.4795C2.51327 20.9587 2.2207 20.2524 2.2207 19.5159V8.4082" stroke="#1678F2" stroke-width="1.86609" stroke-linecap="round" stroke-linejoin="round"/>
<path d="M24.4361 8.40827C24.4361 7.67178 24.1435 6.96546 23.6227 6.44469C23.102 5.92392 22.3956 5.63135 21.6592 5.63135H4.99763C4.26114 5.63135 3.55482 5.92392 3.03404 6.44469C2.51327 6.96546 2.2207 7.67178 2.2207 8.40827L11.8566 14.4249C12.298 14.7008 12.8079 14.847 13.3284 14.847C13.8488 14.847 14.3588 14.7008 14.8002 14.4249L24.4361 8.40827Z" stroke="#1678F2" stroke-width="1.86609" stroke-linecap="round" stroke-linejoin="round"/>
</svg>
