<svg width="25" height="24" viewBox="0 0 25 24" fill="none" xmlns="http://www.w3.org/2000/svg">
<path d="M0.417969 3.58204C0.417969 2.81266 0.688164 2.17793 1.22853 1.67786C1.7689 1.17777 2.4714 0.927734 3.33599 0.927734C4.18516 0.927734 4.87219 1.17392 5.39713 1.66632C5.9375 2.1741 6.20769 2.83574 6.20769 3.65128C6.20769 4.38987 5.94523 5.00535 5.42029 5.49775C4.87992 6.00553 4.16971 6.25942 3.28967 6.25942H3.26651C2.41735 6.25942 1.73031 6.00553 1.20537 5.49775C0.680428 4.98997 0.417969 4.35139 0.417969 3.58204ZM0.719034 23.7778V8.35979H5.86031V23.7778H0.719034ZM8.70885 23.7778H13.8501V15.1687C13.8501 14.6301 13.9119 14.2146 14.0354 13.9223C14.2515 13.3991 14.5796 12.9567 15.0196 12.5951C15.4597 12.2335 16.0116 12.0527 16.6755 12.0527C18.4047 12.0527 19.2693 13.2145 19.2693 15.5379V23.7778H24.4106V14.9378C24.4106 12.6605 23.8702 10.9333 22.7895 9.75618C21.7087 8.57905 20.2806 7.99049 18.5051 7.99049C16.5134 7.99049 14.9618 8.84448 13.8501 10.5525V10.5986H13.827L13.8501 10.5525V8.35979H8.70885C8.73972 8.85217 8.75517 10.3832 8.75517 12.9529C8.75517 15.5226 8.73972 19.1309 8.70885 23.7778Z" fill="#1678F2"/>
</svg>
