<svg width="26" height="26" viewBox="0 0 26 26" fill="none" xmlns="http://www.w3.org/2000/svg">
<path fill-rule="evenodd" clip-rule="evenodd" d="M1.76953 12.6877C1.76953 7.89567 1.76953 5.49965 2.91143 3.77386C3.42135 3.00321 4.08134 2.34323 4.85199 1.83331C6.57777 0.691406 8.97379 0.691406 13.7658 0.691406C18.5579 0.691406 20.9539 0.691406 22.6797 1.83331C23.4503 2.34323 24.1103 3.00321 24.6202 3.77386C25.7621 5.49964 25.7621 7.89566 25.7621 12.6877V12.6877V12.6877C25.7621 17.4798 25.7621 19.8758 24.6202 21.6016C24.1103 22.3722 23.4503 23.0322 22.6797 23.5421C20.9539 24.684 18.5579 24.684 13.7659 24.684H13.7658H13.7658C8.97378 24.684 6.57777 24.684 4.85199 23.5421C4.08134 23.0322 3.42135 22.3722 2.91143 21.6016C1.76953 19.8758 1.76953 17.4798 1.76953 12.6877ZM19.976 12.688C19.976 16.1181 17.1954 18.8987 13.7653 18.8987C10.3353 18.8987 7.55469 16.1181 7.55469 12.688C7.55469 9.25801 10.3353 6.47742 13.7653 6.47742C17.1954 6.47742 19.976 9.25801 19.976 12.688ZM13.7653 16.7975C16.0349 16.7975 17.8747 14.9576 17.8747 12.688C17.8747 10.4185 16.0349 8.57864 13.7653 8.57864C11.4958 8.57864 9.65591 10.4185 9.65591 12.688C9.65591 14.9576 11.4958 16.7975 13.7653 16.7975ZM20.221 7.62468C21.027 7.62468 21.6803 6.97133 21.6803 6.16537C21.6803 5.35941 21.027 4.70605 20.221 4.70605C19.4151 4.70605 18.7617 5.35941 18.7617 6.16537C18.7617 6.97133 19.4151 7.62468 20.221 7.62468Z" fill="#1678F2"/>
</svg>
