<svg width="27" height="35" viewBox="0 0 27 35" fill="none" xmlns="http://www.w3.org/2000/svg">
<path d="M22.4772 19.8075C22.4772 26.9771 15.1339 31.394 13.6079 32.2353C13.5233 32.282 13.4283 32.3064 13.3318 32.3064C13.2352 32.3064 13.1403 32.282 13.0557 32.2353C11.5285 31.394 4.1875 26.9771 4.1875 19.8075C4.1875 14.0919 7.61682 10.0911 13.3324 10.0911C19.0479 10.0911 22.4772 14.0919 22.4772 19.8075Z" stroke="#1678F2" stroke-width="1.86609" stroke-linecap="round" stroke-linejoin="round"/>
<path d="M8.75977 19.2358C8.75977 20.4484 9.2415 21.6115 10.099 22.469C10.9565 23.3265 12.1195 23.8082 13.3322 23.8082C14.5449 23.8082 15.7079 23.3265 16.5654 22.469C17.4229 21.6115 17.9046 20.4484 17.9046 19.2358C17.9046 18.0231 17.4229 16.8601 16.5654 16.0026C15.7079 15.1451 14.5449 14.6633 13.3322 14.6633C12.1195 14.6633 10.9565 15.1451 10.099 16.0026C9.2415 16.8601 8.75977 18.0231 8.75977 19.2358V19.2358Z" stroke="#1678F2" stroke-width="1.86609" stroke-linecap="round" stroke-linejoin="round"/>
</svg>
