<svg width="25" height="21" viewBox="0 0 25 21" fill="none" xmlns="http://www.w3.org/2000/svg">
<path d="M16.1503 0.958178V0.953857H17.2753L17.6863 1.03595C17.9604 1.08925 18.2092 1.1591 18.4327 1.24552C18.6563 1.33194 18.8726 1.43277 19.0817 1.54798C19.2909 1.6632 19.4805 1.7806 19.6507 1.90014C19.8195 2.01825 19.9709 2.14356 20.1051 2.27606C20.2377 2.41 20.4447 2.44457 20.726 2.37976C21.0072 2.31494 21.3101 2.22492 21.6346 2.1097C21.9591 1.99448 22.28 1.86486 22.5973 1.72082C22.9146 1.57678 23.1079 1.48533 23.1772 1.44644C23.2449 1.40613 23.281 1.38452 23.2853 1.38163L23.2896 1.37515L23.3113 1.36434L23.3329 1.35354L23.3545 1.34274L23.3762 1.33194L23.3805 1.32546L23.387 1.32113L23.3935 1.31681L23.3978 1.31033L23.4194 1.30385L23.4411 1.29953L23.4368 1.33194L23.4303 1.36434L23.4194 1.39675L23.4086 1.42916L23.3978 1.45076L23.387 1.47237L23.3762 1.50477C23.369 1.52638 23.3618 1.55518 23.3545 1.59119C23.3473 1.62721 23.2788 1.77122 23.149 2.02328C23.0192 2.27534 22.857 2.53099 22.6622 2.79024C22.4675 3.0495 22.293 3.24537 22.1387 3.37789C21.9829 3.51184 21.8798 3.60545 21.8293 3.65875C21.7788 3.71347 21.7176 3.76388 21.6454 3.80998L21.5373 3.88127L21.5156 3.89208L21.494 3.90288L21.4897 3.90936L21.4832 3.91368L21.4767 3.918L21.4723 3.92448L21.4507 3.93529L21.4291 3.94609L21.4248 3.95257L21.4183 3.95689L21.4118 3.96121L21.4074 3.96769L21.4031 3.97417L21.3966 3.97849L21.3901 3.98282L21.3858 3.9893H21.494L22.0997 3.85967C22.5036 3.77325 22.8894 3.66884 23.2572 3.5464L23.8413 3.35196L23.9062 3.33036L23.9387 3.31956L23.9603 3.30875L23.9819 3.29795L24.0036 3.28715L24.0252 3.27635L24.0685 3.26987L24.1117 3.26554V3.30875L24.1009 3.31307L24.0901 3.31956L24.0858 3.32604L24.0793 3.33036L24.0728 3.33468L24.0685 3.34116L24.0642 3.34764L24.0577 3.35196L24.0512 3.35628L24.0468 3.36277L24.0425 3.36925L24.036 3.37357L24.0252 3.39517L24.0144 3.41678L24.0079 3.4211C24.005 3.42542 23.9134 3.54783 23.7331 3.78837C23.5529 4.03035 23.4555 4.15276 23.4411 4.15565C23.4267 4.15997 23.4065 4.18158 23.3805 4.22047C23.356 4.26078 23.2031 4.42139 22.9219 4.70225C22.6406 4.98311 22.3652 5.23298 22.0954 5.45193C21.8243 5.67229 21.6873 5.94306 21.6844 6.26426C21.6801 6.584 21.6635 6.94553 21.6346 7.3488C21.6058 7.7521 21.5517 8.18777 21.4723 8.65588C21.393 9.12399 21.2704 9.6533 21.1046 10.2438C20.9387 10.8343 20.7368 11.4105 20.4988 11.9722C20.2608 12.5339 20.012 13.038 19.7524 13.4845C19.4928 13.931 19.2548 14.3091 19.0385 14.6187C18.8221 14.9284 18.6022 15.2201 18.3786 15.4937C18.1551 15.7674 17.8724 16.0756 17.5306 16.4184C17.1873 16.7597 16.9998 16.947 16.9681 16.9801C16.9349 17.0118 16.7936 17.1299 16.544 17.3344C16.296 17.5404 16.0291 17.7463 15.7435 17.9523C15.4594 18.1568 15.1984 18.3275 14.9604 18.4643C14.7224 18.6012 14.4354 18.7574 14.0993 18.9332C13.7647 19.1103 13.4027 19.2745 13.0133 19.4258C12.6239 19.577 12.2128 19.7174 11.7801 19.847C11.3474 19.9767 10.9292 20.0775 10.5253 20.1495C10.1215 20.2215 9.66355 20.2827 9.15153 20.3331L8.3835 20.4088V20.4196H6.97726V20.4088L6.79337 20.398C6.67079 20.3908 6.56982 20.3835 6.49049 20.3764C6.41118 20.3692 6.11188 20.3295 5.59266 20.2575C5.07343 20.1855 4.66599 20.1135 4.37031 20.0415C4.07465 19.9695 3.63474 19.8326 3.05061 19.631C2.46648 19.4294 1.96672 19.2255 1.55134 19.0196C1.13741 18.8151 0.877796 18.6854 0.772501 18.6307C0.668656 18.5774 0.55183 18.5112 0.422023 18.4319L0.227313 18.3131L0.223008 18.3066L0.216496 18.3023L0.210005 18.298L0.205678 18.2915L0.184044 18.2807L0.16241 18.2699L0.158104 18.2634L0.151592 18.2591L0.145102 18.2548L0.140775 18.2483L0.13647 18.2418L0.129958 18.2375H0.119141V18.1943L0.140775 18.1986L0.16241 18.2051L0.259765 18.2159C0.324668 18.2231 0.501357 18.2339 0.789809 18.2483C1.07828 18.2627 1.38476 18.2627 1.70927 18.2483C2.03379 18.2339 2.36553 18.2015 2.70446 18.1511C3.0434 18.1007 3.44364 18.0143 3.90517 17.8918C4.36672 17.7694 4.79075 17.6239 5.1773 17.4554C5.56239 17.2855 5.83641 17.1587 5.99941 17.0752C6.16093 16.9931 6.40756 16.8404 6.73928 16.6172L7.23688 16.2823L7.2412 16.2758L7.24769 16.2715L7.25421 16.2672L7.25851 16.2607L7.26284 16.2542L7.26933 16.2499L7.27584 16.2456L7.28014 16.2391L7.30178 16.2326L7.32341 16.2283L7.32774 16.2067L7.33423 16.1851L7.34074 16.1807L7.34505 16.1743L7.17197 16.1635C7.0566 16.1563 6.94481 16.1491 6.83664 16.1419C6.72847 16.1347 6.559 16.1023 6.32823 16.0446C6.09748 15.987 5.84868 15.9006 5.58184 15.7854C5.31502 15.6702 5.05541 15.5333 4.803 15.3749C4.55061 15.2165 4.36815 15.0847 4.25565 14.9795C4.1446 14.8758 4.00036 14.7289 3.82296 14.5388C3.64701 14.3473 3.49412 14.1506 3.36431 13.949C3.2345 13.7474 3.11047 13.5147 2.99222 13.2512L2.81263 12.858L2.80181 12.8256L2.791 12.7932L2.78451 12.7715L2.78018 12.7499L2.81263 12.7543L2.84508 12.7607L3.08306 12.7932C3.24173 12.8148 3.49052 12.822 3.82945 12.8148C4.1684 12.8076 4.40276 12.7932 4.53257 12.7715C4.66238 12.7499 4.74171 12.7355 4.77055 12.7283L4.81382 12.7175L4.8679 12.7067L4.92199 12.6959L4.92632 12.6895L4.93281 12.6851L4.93932 12.6808L4.94362 12.6743L4.90035 12.6635L4.85709 12.6527L4.81382 12.6419L4.77055 12.6311L4.72728 12.6203C4.69844 12.6131 4.64797 12.5987 4.57584 12.5771C4.50373 12.5555 4.30902 12.4763 3.99171 12.3395C3.67442 12.2026 3.42201 12.0694 3.2345 11.9398C3.04653 11.8098 2.8673 11.6676 2.69797 11.5142C2.52922 11.3586 2.3439 11.1584 2.14196 10.9136C1.94005 10.6687 1.75977 10.3842 1.6011 10.0602C1.44246 9.73611 1.32347 9.42645 1.24413 9.13118C1.16512 8.83765 1.11299 8.53755 1.08839 8.23459L1.04942 7.7809L1.07106 7.78522L1.09269 7.7917L1.11433 7.8025L1.13596 7.8133L1.15759 7.82411L1.17923 7.83491L1.51456 7.98614C1.73813 8.08697 2.01577 8.17339 2.34749 8.24539C2.67923 8.3174 2.87753 8.35702 2.94244 8.36422L3.03979 8.37502H3.2345L3.2302 8.36854L3.22368 8.36422L3.21719 8.3599L3.21287 8.35342L3.20856 8.34694L3.20205 8.34261L3.19556 8.33829L3.19123 8.33181L3.1696 8.32101L3.14796 8.31021L3.14366 8.30373L3.13715 8.29941L3.13066 8.29508L3.12633 8.2886L3.1047 8.2778L3.08306 8.267L3.07876 8.26052C3.07443 8.25762 3.0124 8.21154 2.89268 8.12225C2.7744 8.03151 2.65037 7.91413 2.52057 7.77009C2.39076 7.62606 2.26095 7.47482 2.13114 7.3164C2.0011 7.15761 1.88527 6.98772 1.78499 6.80869C1.68405 6.62866 1.5773 6.39963 1.4648 6.12167C1.35375 5.84513 1.26938 5.56643 1.21168 5.28557C1.154 5.00471 1.12155 4.72746 1.11433 4.45379C1.10712 4.18013 1.11433 3.94609 1.13596 3.75165C1.15759 3.55721 1.20086 3.33755 1.26577 3.09271C1.33067 2.84786 1.42443 2.58861 1.54701 2.31494L1.73091 1.90446L1.74172 1.87205L1.75254 1.83964L1.75905 1.83532L1.76336 1.82884L1.76769 1.82236L1.77418 1.81804L1.78069 1.82236L1.78499 1.82884L1.78932 1.83532L1.79581 1.83964L1.80232 1.84396L1.80663 1.85045L1.81095 1.85693L1.81745 1.86125L1.82826 1.88285L1.83908 1.90446L1.84559 1.90878L1.8499 1.91526L2.14196 2.23933C2.33667 2.45537 2.56745 2.69663 2.83426 2.96308C3.1011 3.22953 3.24893 3.3678 3.27777 3.37789C3.30663 3.3894 3.34267 3.42252 3.38594 3.47727C3.42921 3.53057 3.57345 3.65803 3.81863 3.85967C4.06384 4.06131 4.38474 4.29537 4.78137 4.56182C5.17801 4.82827 5.6179 5.09113 6.10107 5.35038C6.58425 5.60964 7.10348 5.84368 7.65875 6.05253C8.21404 6.26138 8.60346 6.3982 8.82701 6.46302C9.05058 6.52783 9.43277 6.61064 9.97363 6.71147C10.5145 6.8123 10.922 6.87711 11.196 6.90591C11.47 6.93471 11.6575 6.95128 11.7585 6.9556L11.9099 6.95992L11.9056 6.92752L11.8991 6.89511L11.8558 6.62505C11.827 6.44502 11.8126 6.19296 11.8126 5.86889C11.8126 5.54483 11.8378 5.24597 11.8883 4.9723C11.9388 4.69864 12.0145 4.42139 12.1154 4.14053C12.2164 3.85967 12.3152 3.63425 12.4118 3.46431C12.5099 3.29579 12.6383 3.10351 12.7969 2.88746C12.9556 2.67142 13.1611 2.44818 13.4135 2.21772C13.6659 1.98727 13.9544 1.78202 14.2789 1.60199C14.6034 1.42196 14.9027 1.28512 15.1767 1.19151C15.4508 1.09789 15.6815 1.03667 15.869 1.00787C16.0565 0.97907 16.1503 0.962499 16.1503 0.958178Z" fill="#1678F2"/>
</svg>
