<svg width="27" height="20" viewBox="0 0 27 20" fill="none" xmlns="http://www.w3.org/2000/svg">
<path d="M13.9818 18.9905L8.56721 18.8893C6.81409 18.8541 5.0566 18.9245 3.33785 18.5591C0.72324 18.0133 0.538011 15.3369 0.344189 13.0919C0.0771223 9.93578 0.180512 6.72235 0.684502 3.59255C0.969021 1.8364 2.08872 0.788495 3.82029 0.674463C9.66563 0.260624 15.5498 0.309669 21.3822 0.50274C21.9982 0.520439 22.6184 0.617177 23.2258 0.727291C26.2239 1.26435 26.297 4.29728 26.4914 6.85043C26.6852 9.42993 26.6034 12.0227 26.2329 14.5846C25.9357 16.7058 25.3671 18.4847 22.9673 18.6564C19.9605 18.8809 17.0228 19.0617 14.0076 19.0042C14.0077 18.9905 13.9904 18.9905 13.9818 18.9905ZM10.7985 13.6202C13.0644 12.2907 15.287 10.9834 17.5399 9.66286C15.2698 8.33339 13.0514 7.02607 10.7985 5.70552V13.6202Z" fill="#1678F2"/>
</svg>
